<svg width="360" height="640" viewBox="0 0 360 640" fill="none" xmlns="http://www.w3.org/2000/svg">
<rect width="360" height="640" fill="white"/>
<path d="M64 185C64 182.791 65.7909 181 68 181H340C342.209 181 344 182.791 344 185V235H64V185Z" fill="#212121" fill-opacity="0.08"/>
<path d="M80.8281 212.773H86.2188V214H79.3203V202.625H80.8281V212.773ZM93.0719 214C92.9885 213.833 92.9208 213.536 92.8687 213.109C92.1969 213.807 91.3948 214.156 90.4625 214.156C89.6292 214.156 88.9443 213.922 88.4078 213.453C87.8766 212.979 87.6109 212.38 87.6109 211.656C87.6109 210.776 87.9443 210.094 88.6109 209.609C89.2828 209.12 90.2255 208.875 91.4391 208.875H92.8453V208.211C92.8453 207.706 92.6943 207.305 92.3922 207.008C92.0901 206.706 91.6448 206.555 91.0562 206.555C90.5406 206.555 90.1083 206.685 89.7594 206.945C89.4104 207.206 89.2359 207.521 89.2359 207.891H87.7828C87.7828 207.469 87.9312 207.062 88.2281 206.672C88.5302 206.276 88.9365 205.964 89.4469 205.734C89.9625 205.505 90.5276 205.391 91.1422 205.391C92.1161 205.391 92.8792 205.635 93.4312 206.125C93.9833 206.609 94.2698 207.279 94.2906 208.133V212.023C94.2906 212.799 94.3896 213.417 94.5875 213.875V214H93.0719ZM90.6734 212.898C91.1266 212.898 91.5562 212.781 91.9625 212.547C92.3687 212.312 92.663 212.008 92.8453 211.633V209.898H91.7125C89.9417 209.898 89.0562 210.417 89.0562 211.453C89.0562 211.906 89.2073 212.26 89.5094 212.516C89.8115 212.771 90.1995 212.898 90.6734 212.898ZM103.862 209.867C103.862 211.159 103.566 212.198 102.972 212.984C102.378 213.766 101.581 214.156 100.581 214.156C99.5135 214.156 98.688 213.779 98.1047 213.023L98.0344 214H96.7062V202H98.1516V206.477C98.7349 205.753 99.5396 205.391 100.566 205.391C101.592 205.391 102.396 205.779 102.98 206.555C103.568 207.331 103.862 208.393 103.862 209.742V209.867ZM102.417 209.703C102.417 208.719 102.227 207.958 101.847 207.422C101.467 206.885 100.92 206.617 100.206 206.617C99.2531 206.617 98.5682 207.06 98.1516 207.945V211.602C98.5943 212.487 99.2844 212.93 100.222 212.93C100.915 212.93 101.454 212.661 101.839 212.125C102.224 211.589 102.417 210.781 102.417 209.703ZM109.348 214.156C108.203 214.156 107.27 213.781 106.552 213.031C105.833 212.276 105.473 211.268 105.473 210.008V209.742C105.473 208.904 105.632 208.156 105.95 207.5C106.273 206.839 106.721 206.323 107.294 205.953C107.872 205.578 108.497 205.391 109.169 205.391C110.268 205.391 111.122 205.753 111.731 206.477C112.341 207.201 112.645 208.237 112.645 209.586V210.188H106.919C106.94 211.021 107.182 211.695 107.645 212.211C108.114 212.721 108.708 212.977 109.427 212.977C109.937 212.977 110.369 212.872 110.723 212.664C111.078 212.456 111.388 212.18 111.653 211.836L112.536 212.523C111.828 213.612 110.765 214.156 109.348 214.156ZM109.169 206.578C108.585 206.578 108.096 206.792 107.7 207.219C107.304 207.641 107.059 208.234 106.966 209H111.2V208.891C111.158 208.156 110.96 207.589 110.606 207.188C110.252 206.781 109.773 206.578 109.169 206.578ZM116.045 214H114.6V202H116.045V214Z" fill="black" fill-opacity="0.6"/>
<path fill-rule="evenodd" clip-rule="evenodd" d="M320 202C315 202 310.73 205.11 309 209.5C310.73 213.89 315 217 320 217C325 217 329.27 213.89 331 209.5C329.27 205.11 325 202 320 202ZM320 214.5C317.24 214.5 315 212.26 315 209.5C315 206.74 317.24 204.5 320 204.5C322.76 204.5 325 206.74 325 209.5C325 212.26 322.76 214.5 320 214.5ZM320 206.5C318.34 206.5 317 207.84 317 209.5C317 211.16 318.34 212.5 320 212.5C321.66 212.5 323 211.16 323 209.5C323 207.84 321.66 206.5 320 206.5Z" fill="black" fill-opacity="0.6"/>
<path d="M85.7012 248.773H82.127L81.3242 251H80.1641L83.4219 242.469H84.4062L87.6699 251H86.5156L85.7012 248.773ZM82.4668 247.848H85.3672L83.9141 243.857L82.4668 247.848ZM92.7398 249.318C92.7398 249.025 92.6285 248.799 92.4059 248.639C92.1871 248.475 91.8023 248.334 91.2516 248.217C90.7047 248.1 90.2691 247.959 89.9449 247.795C89.6246 247.631 89.3863 247.436 89.2301 247.209C89.0777 246.982 89.0016 246.713 89.0016 246.4C89.0016 245.881 89.2203 245.441 89.6578 245.082C90.0992 244.723 90.6617 244.543 91.3453 244.543C92.0641 244.543 92.6461 244.729 93.0914 245.1C93.5406 245.471 93.7652 245.945 93.7652 246.523H92.6754C92.6754 246.227 92.5484 245.971 92.2945 245.756C92.0445 245.541 91.7281 245.434 91.3453 245.434C90.9508 245.434 90.6422 245.52 90.4195 245.691C90.1969 245.863 90.0855 246.088 90.0855 246.365C90.0855 246.627 90.1891 246.824 90.3961 246.957C90.6031 247.09 90.9762 247.217 91.5152 247.338C92.0582 247.459 92.4977 247.604 92.8336 247.771C93.1695 247.939 93.4176 248.143 93.5777 248.381C93.7418 248.615 93.8238 248.902 93.8238 249.242C93.8238 249.809 93.5973 250.264 93.1441 250.607C92.691 250.947 92.1031 251.117 91.3805 251.117C90.8727 251.117 90.4234 251.027 90.0328 250.848C89.6422 250.668 89.3355 250.418 89.1129 250.098C88.8941 249.773 88.7848 249.424 88.7848 249.049H89.8687C89.8883 249.412 90.0328 249.701 90.3023 249.916C90.5758 250.127 90.9352 250.232 91.3805 250.232C91.7906 250.232 92.1187 250.15 92.3648 249.986C92.6148 249.818 92.7398 249.596 92.7398 249.318ZM99.3273 249.318C99.3273 249.025 99.216 248.799 98.9934 248.639C98.7746 248.475 98.3898 248.334 97.8391 248.217C97.2922 248.1 96.8566 247.959 96.5324 247.795C96.2121 247.631 95.9738 247.436 95.8176 247.209C95.6652 246.982 95.5891 246.713 95.5891 246.4C95.5891 245.881 95.8078 245.441 96.2453 245.082C96.6867 244.723 97.2492 244.543 97.9328 244.543C98.6516 244.543 99.2336 244.729 99.6789 245.1C100.128 245.471 100.353 245.945 100.353 246.523H99.2629C99.2629 246.227 99.1359 245.971 98.882 245.756C98.632 245.541 98.3156 245.434 97.9328 245.434C97.5383 245.434 97.2297 245.52 97.007 245.691C96.7844 245.863 96.673 246.088 96.673 246.365C96.673 246.627 96.7766 246.824 96.9836 246.957C97.1906 247.09 97.5637 247.217 98.1027 247.338C98.6457 247.459 99.0852 247.604 99.4211 247.771C99.757 247.939 100.005 248.143 100.165 248.381C100.329 248.615 100.411 248.902 100.411 249.242C100.411 249.809 100.185 250.264 99.7316 250.607C99.2785 250.947 98.6906 251.117 97.968 251.117C97.4602 251.117 97.0109 251.027 96.6203 250.848C96.2297 250.668 95.923 250.418 95.7004 250.098C95.4816 249.773 95.3723 249.424 95.3723 249.049H96.4563C96.4758 249.412 96.6203 249.701 96.8898 249.916C97.1633 250.127 97.5227 250.232 97.968 250.232C98.3781 250.232 98.7063 250.15 98.9523 249.986C99.2023 249.818 99.3273 249.596 99.3273 249.318ZM103.401 251H102.317V244.66H103.401V251ZM102.229 242.979C102.229 242.803 102.282 242.654 102.388 242.533C102.497 242.412 102.657 242.352 102.868 242.352C103.079 242.352 103.239 242.412 103.348 242.533C103.458 242.654 103.513 242.803 103.513 242.979C103.513 243.154 103.458 243.301 103.348 243.418C103.239 243.535 103.079 243.594 102.868 243.594C102.657 243.594 102.497 243.535 102.388 243.418C102.282 243.301 102.229 243.154 102.229 242.979ZM109.233 249.318C109.233 249.025 109.121 248.799 108.899 248.639C108.68 248.475 108.295 248.334 107.745 248.217C107.198 248.1 106.762 247.959 106.438 247.795C106.118 247.631 105.879 247.436 105.723 247.209C105.571 246.982 105.495 246.713 105.495 246.4C105.495 245.881 105.713 245.441 106.151 245.082C106.592 244.723 107.155 244.543 107.838 244.543C108.557 244.543 109.139 244.729 109.584 245.1C110.034 245.471 110.258 245.945 110.258 246.523H109.168C109.168 246.227 109.041 245.971 108.788 245.756C108.538 245.541 108.221 245.434 107.838 245.434C107.444 245.434 107.135 245.52 106.913 245.691C106.69 245.863 106.579 246.088 106.579 246.365C106.579 246.627 106.682 246.824 106.889 246.957C107.096 247.09 107.469 247.217 108.008 247.338C108.551 247.459 108.991 247.604 109.327 247.771C109.663 247.939 109.911 248.143 110.071 248.381C110.235 248.615 110.317 248.902 110.317 249.242C110.317 249.809 110.09 250.264 109.637 250.607C109.184 250.947 108.596 251.117 107.873 251.117C107.366 251.117 106.916 251.027 106.526 250.848C106.135 250.668 105.829 250.418 105.606 250.098C105.387 249.773 105.278 249.424 105.278 249.049H106.362C106.381 249.412 106.526 249.701 106.795 249.916C107.069 250.127 107.428 250.232 107.873 250.232C108.284 250.232 108.612 250.15 108.858 249.986C109.108 249.818 109.233 249.596 109.233 249.318ZM113.6 243.125V244.66H114.783V245.498H113.6V249.43C113.6 249.684 113.652 249.875 113.758 250.004C113.863 250.129 114.043 250.191 114.297 250.191C114.422 250.191 114.594 250.168 114.812 250.121V251C114.527 251.078 114.25 251.117 113.98 251.117C113.496 251.117 113.131 250.971 112.885 250.678C112.639 250.385 112.516 249.969 112.516 249.43V245.498H111.361V244.66H112.516V243.125H113.6ZM117.632 251H116.548V244.66H117.632V251ZM116.461 242.979C116.461 242.803 116.513 242.654 116.619 242.533C116.728 242.412 116.888 242.352 117.099 242.352C117.31 242.352 117.47 242.412 117.58 242.533C117.689 242.654 117.744 242.803 117.744 242.979C117.744 243.154 117.689 243.301 117.58 243.418C117.47 243.535 117.31 243.594 117.099 243.594C116.888 243.594 116.728 243.535 116.619 243.418C116.513 243.301 116.461 243.154 116.461 242.979ZM121.864 249.529L123.435 244.66H124.542L122.269 251H121.443L119.146 244.66H120.253L121.864 249.529ZM128.534 251.117C127.675 251.117 126.975 250.836 126.436 250.273C125.897 249.707 125.628 248.951 125.628 248.006V247.807C125.628 247.178 125.747 246.617 125.985 246.125C126.227 245.629 126.563 245.242 126.993 244.965C127.427 244.684 127.895 244.543 128.399 244.543C129.223 244.543 129.864 244.814 130.321 245.357C130.778 245.9 131.007 246.678 131.007 247.689V248.141H126.712C126.727 248.766 126.909 249.271 127.257 249.658C127.608 250.041 128.054 250.232 128.593 250.232C128.975 250.232 129.3 250.154 129.565 249.998C129.831 249.842 130.063 249.635 130.263 249.377L130.925 249.893C130.393 250.709 129.596 251.117 128.534 251.117ZM128.399 245.434C127.962 245.434 127.595 245.594 127.298 245.914C127.001 246.23 126.817 246.676 126.747 247.25H129.923V247.168C129.891 246.617 129.743 246.191 129.477 245.891C129.212 245.586 128.852 245.434 128.399 245.434ZM137.514 243.125V244.66H138.697V245.498H137.514V249.43C137.514 249.684 137.566 249.875 137.672 250.004C137.777 250.129 137.957 250.191 138.211 250.191C138.336 250.191 138.508 250.168 138.727 250.121V251C138.441 251.078 138.164 251.117 137.895 251.117C137.41 251.117 137.045 250.971 136.799 250.678C136.553 250.385 136.43 249.969 136.43 249.43V245.498H135.275V244.66H136.43V243.125H137.514ZM143 251.117C142.14 251.117 141.441 250.836 140.902 250.273C140.363 249.707 140.093 248.951 140.093 248.006V247.807C140.093 247.178 140.213 246.617 140.451 246.125C140.693 245.629 141.029 245.242 141.459 244.965C141.892 244.684 142.361 244.543 142.865 244.543C143.689 244.543 144.33 244.814 144.787 245.357C145.244 245.9 145.472 246.678 145.472 247.689V248.141H141.177C141.193 248.766 141.375 249.271 141.722 249.658C142.074 250.041 142.519 250.232 143.058 250.232C143.441 250.232 143.765 250.154 144.031 249.998C144.296 249.842 144.529 249.635 144.728 249.377L145.39 249.893C144.859 250.709 144.062 251.117 143 251.117ZM142.865 245.434C142.427 245.434 142.06 245.594 141.763 245.914C141.466 246.23 141.283 246.676 141.213 247.25H144.388V247.168C144.357 246.617 144.209 246.191 143.943 245.891C143.677 245.586 143.318 245.434 142.865 245.434ZM149.259 246.975L150.665 244.66H151.931L149.857 247.795L151.995 251H150.741L149.277 248.627L147.812 251H146.552L148.691 247.795L146.616 244.66H147.87L149.259 246.975ZM154.956 243.125V244.66H156.139V245.498H154.956V249.43C154.956 249.684 155.009 249.875 155.114 250.004C155.22 250.129 155.399 250.191 155.653 250.191C155.778 250.191 155.95 250.168 156.169 250.121V251C155.884 251.078 155.606 251.117 155.337 251.117C154.852 251.117 154.487 250.971 154.241 250.678C153.995 250.385 153.872 249.969 153.872 249.43V245.498H152.718V244.66H153.872V243.125H154.956Z" fill="black" fill-opacity="0.6"/>
<path d="M65.1553 289V279.047H68.4092C69.4893 279.047 70.3005 279.27 70.8428 279.717C71.3896 280.163 71.6631 280.824 71.6631 281.699C71.6631 282.164 71.5309 282.576 71.2666 282.937C71.0023 283.292 70.6423 283.568 70.1865 283.764C70.7243 283.914 71.1481 284.201 71.458 284.625C71.7725 285.044 71.9297 285.546 71.9297 286.129C71.9297 287.022 71.6403 287.724 71.0615 288.234C70.4827 288.745 69.6647 289 68.6074 289H65.1553ZM66.4678 284.345V287.927H68.6348C69.2454 287.927 69.7262 287.77 70.0771 287.455C70.4326 287.136 70.6104 286.699 70.6104 286.143C70.6104 284.944 69.9587 284.345 68.6553 284.345H66.4678ZM66.4678 283.292H68.4502C69.0244 283.292 69.4824 283.148 69.8242 282.861C70.1706 282.574 70.3438 282.185 70.3438 281.692C70.3438 281.146 70.1842 280.749 69.8652 280.503C69.5462 280.252 69.0609 280.127 68.4092 280.127H66.4678V283.292ZM73.5947 285.233C73.5947 284.509 73.736 283.857 74.0186 283.278C74.3057 282.7 74.7021 282.253 75.208 281.938C75.7184 281.624 76.2995 281.467 76.9512 281.467C77.9583 281.467 78.7718 281.815 79.3916 282.513C80.016 283.21 80.3281 284.137 80.3281 285.295V285.384C80.3281 286.104 80.1891 286.751 79.9111 287.325C79.6377 287.895 79.2435 288.339 78.7285 288.658C78.2181 288.977 77.6302 289.137 76.9648 289.137C75.9622 289.137 75.1488 288.788 74.5244 288.091C73.9046 287.394 73.5947 286.471 73.5947 285.322V285.233ZM74.8662 285.384C74.8662 286.204 75.0553 286.863 75.4336 287.359C75.8164 287.856 76.3268 288.104 76.9648 288.104C77.6074 288.104 78.1178 287.854 78.4961 287.353C78.8743 286.847 79.0635 286.14 79.0635 285.233C79.0635 284.422 78.8698 283.766 78.4824 283.265C78.0996 282.759 77.5892 282.506 76.9512 282.506C76.3268 282.506 75.8232 282.754 75.4404 283.251C75.0576 283.748 74.8662 284.459 74.8662 285.384ZM81.8564 285.24C81.8564 284.105 82.1253 283.194 82.6631 282.506C83.2008 281.813 83.9049 281.467 84.7754 281.467C85.6413 281.467 86.3271 281.763 86.833 282.355V278.5H88.0977V289H86.9355L86.874 288.207C86.3682 288.827 85.6641 289.137 84.7617 289.137C83.9049 289.137 83.2054 288.786 82.6631 288.084C82.1253 287.382 81.8564 286.466 81.8564 285.336V285.24ZM83.1211 285.384C83.1211 286.222 83.2943 286.879 83.6406 287.353C83.987 287.826 84.4655 288.063 85.0762 288.063C85.8783 288.063 86.4639 287.703 86.833 286.983V283.586C86.4548 282.889 85.8737 282.54 85.0898 282.54C84.4701 282.54 83.987 282.779 83.6406 283.258C83.2943 283.736 83.1211 284.445 83.1211 285.384ZM92.7363 287.147L94.459 281.604H95.8125L92.8389 290.142C92.3786 291.372 91.6471 291.987 90.6445 291.987L90.4053 291.967L89.9336 291.878V290.853L90.2754 290.88C90.7038 290.88 91.0365 290.793 91.2734 290.62C91.515 290.447 91.7132 290.13 91.8682 289.67L92.1484 288.918L89.5098 281.604H90.8906L92.7363 287.147ZM107.312 289H100.79V288.091L104.235 284.263C104.746 283.684 105.097 283.215 105.288 282.854C105.484 282.49 105.582 282.114 105.582 281.727C105.582 281.207 105.425 280.781 105.11 280.448C104.796 280.116 104.377 279.949 103.853 279.949C103.224 279.949 102.734 280.129 102.383 280.489C102.036 280.845 101.863 281.341 101.863 281.979H100.599C100.599 281.063 100.893 280.323 101.48 279.758C102.073 279.193 102.864 278.91 103.853 278.91C104.778 278.91 105.509 279.154 106.047 279.642C106.585 280.125 106.854 280.77 106.854 281.576C106.854 282.556 106.229 283.723 104.98 285.076L102.314 287.968H107.312V289Z" fill="black" fill-opacity="0.6"/>
<path d="M65.1553 325V315.047H68.4092C69.4893 315.047 70.3005 315.27 70.8428 315.717C71.3896 316.163 71.6631 316.824 71.6631 317.699C71.6631 318.164 71.5309 318.576 71.2666 318.937C71.0023 319.292 70.6423 319.568 70.1865 319.764C70.7243 319.914 71.1481 320.201 71.458 320.625C71.7725 321.044 71.9297 321.546 71.9297 322.129C71.9297 323.022 71.6403 323.724 71.0615 324.234C70.4827 324.745 69.6647 325 68.6074 325H65.1553ZM66.4678 320.345V323.927H68.6348C69.2454 323.927 69.7262 323.77 70.0771 323.455C70.4326 323.136 70.6104 322.699 70.6104 322.143C70.6104 320.944 69.9587 320.345 68.6553 320.345H66.4678ZM66.4678 319.292H68.4502C69.0244 319.292 69.4824 319.148 69.8242 318.861C70.1706 318.574 70.3438 318.185 70.3438 317.692C70.3438 317.146 70.1842 316.749 69.8652 316.503C69.5462 316.252 69.0609 316.127 68.4092 316.127H66.4678V319.292ZM73.5947 321.233C73.5947 320.509 73.736 319.857 74.0186 319.278C74.3057 318.7 74.7021 318.253 75.208 317.938C75.7184 317.624 76.2995 317.467 76.9512 317.467C77.9583 317.467 78.7718 317.815 79.3916 318.513C80.016 319.21 80.3281 320.137 80.3281 321.295V321.384C80.3281 322.104 80.1891 322.751 79.9111 323.325C79.6377 323.895 79.2435 324.339 78.7285 324.658C78.2181 324.977 77.6302 325.137 76.9648 325.137C75.9622 325.137 75.1488 324.788 74.5244 324.091C73.9046 323.394 73.5947 322.471 73.5947 321.322V321.233ZM74.8662 321.384C74.8662 322.204 75.0553 322.863 75.4336 323.359C75.8164 323.856 76.3268 324.104 76.9648 324.104C77.6074 324.104 78.1178 323.854 78.4961 323.353C78.8743 322.847 79.0635 322.14 79.0635 321.233C79.0635 320.422 78.8698 319.766 78.4824 319.265C78.0996 318.759 77.5892 318.506 76.9512 318.506C76.3268 318.506 75.8232 318.754 75.4404 319.251C75.0576 319.748 74.8662 320.459 74.8662 321.384ZM81.8564 321.24C81.8564 320.105 82.1253 319.194 82.6631 318.506C83.2008 317.813 83.9049 317.467 84.7754 317.467C85.6413 317.467 86.3271 317.763 86.833 318.355V314.5H88.0977V325H86.9355L86.874 324.207C86.3682 324.827 85.6641 325.137 84.7617 325.137C83.9049 325.137 83.2054 324.786 82.6631 324.084C82.1253 323.382 81.8564 322.466 81.8564 321.336V321.24ZM83.1211 321.384C83.1211 322.222 83.2943 322.879 83.6406 323.353C83.987 323.826 84.4655 324.063 85.0762 324.063C85.8783 324.063 86.4639 323.703 86.833 322.983V319.586C86.4548 318.889 85.8737 318.54 85.0898 318.54C84.4701 318.54 83.987 318.779 83.6406 319.258C83.2943 319.736 83.1211 320.445 83.1211 321.384ZM92.7363 323.147L94.459 317.604H95.8125L92.8389 326.142C92.3786 327.372 91.6471 327.987 90.6445 327.987L90.4053 327.967L89.9336 327.878V326.853L90.2754 326.88C90.7038 326.88 91.0365 326.793 91.2734 326.62C91.515 326.447 91.7132 326.13 91.8682 325.67L92.1484 324.918L89.5098 317.604H90.8906L92.7363 323.147ZM107.312 325H100.79V324.091L104.235 320.263C104.746 319.684 105.097 319.215 105.288 318.854C105.484 318.49 105.582 318.114 105.582 317.727C105.582 317.207 105.425 316.781 105.11 316.448C104.796 316.116 104.377 315.949 103.853 315.949C103.224 315.949 102.734 316.129 102.383 316.489C102.036 316.845 101.863 317.341 101.863 317.979H100.599C100.599 317.063 100.893 316.323 101.48 315.758C102.073 315.193 102.864 314.91 103.853 314.91C104.778 314.91 105.509 315.154 106.047 315.642C106.585 316.125 106.854 316.77 106.854 317.576C106.854 318.556 106.229 319.723 104.98 321.076L102.314 323.968H107.312V325Z" fill="black" fill-opacity="0.6"/>
<path d="M65.1553 361V351.047H68.4092C69.4893 351.047 70.3005 351.27 70.8428 351.717C71.3896 352.163 71.6631 352.824 71.6631 353.699C71.6631 354.164 71.5309 354.576 71.2666 354.937C71.0023 355.292 70.6423 355.568 70.1865 355.764C70.7243 355.914 71.1481 356.201 71.458 356.625C71.7725 357.044 71.9297 357.546 71.9297 358.129C71.9297 359.022 71.6403 359.724 71.0615 360.234C70.4827 360.745 69.6647 361 68.6074 361H65.1553ZM66.4678 356.345V359.927H68.6348C69.2454 359.927 69.7262 359.77 70.0771 359.455C70.4326 359.136 70.6104 358.699 70.6104 358.143C70.6104 356.944 69.9587 356.345 68.6553 356.345H66.4678ZM66.4678 355.292H68.4502C69.0244 355.292 69.4824 355.148 69.8242 354.861C70.1706 354.574 70.3438 354.185 70.3438 353.692C70.3438 353.146 70.1842 352.749 69.8652 352.503C69.5462 352.252 69.0609 352.127 68.4092 352.127H66.4678V355.292ZM73.5947 357.233C73.5947 356.509 73.736 355.857 74.0186 355.278C74.3057 354.7 74.7021 354.253 75.208 353.938C75.7184 353.624 76.2995 353.467 76.9512 353.467C77.9583 353.467 78.7718 353.815 79.3916 354.513C80.016 355.21 80.3281 356.137 80.3281 357.295V357.384C80.3281 358.104 80.1891 358.751 79.9111 359.325C79.6377 359.895 79.2435 360.339 78.7285 360.658C78.2181 360.977 77.6302 361.137 76.9648 361.137C75.9622 361.137 75.1488 360.788 74.5244 360.091C73.9046 359.394 73.5947 358.471 73.5947 357.322V357.233ZM74.8662 357.384C74.8662 358.204 75.0553 358.863 75.4336 359.359C75.8164 359.856 76.3268 360.104 76.9648 360.104C77.6074 360.104 78.1178 359.854 78.4961 359.353C78.8743 358.847 79.0635 358.14 79.0635 357.233C79.0635 356.422 78.8698 355.766 78.4824 355.265C78.0996 354.759 77.5892 354.506 76.9512 354.506C76.3268 354.506 75.8232 354.754 75.4404 355.251C75.0576 355.748 74.8662 356.459 74.8662 357.384ZM81.8564 357.24C81.8564 356.105 82.1253 355.194 82.6631 354.506C83.2008 353.813 83.9049 353.467 84.7754 353.467C85.6413 353.467 86.3271 353.763 86.833 354.355V350.5H88.0977V361H86.9355L86.874 360.207C86.3682 360.827 85.6641 361.137 84.7617 361.137C83.9049 361.137 83.2054 360.786 82.6631 360.084C82.1253 359.382 81.8564 358.466 81.8564 357.336V357.24ZM83.1211 357.384C83.1211 358.222 83.2943 358.879 83.6406 359.353C83.987 359.826 84.4655 360.063 85.0762 360.063C85.8783 360.063 86.4639 359.703 86.833 358.983V355.586C86.4548 354.889 85.8737 354.54 85.0898 354.54C84.4701 354.54 83.987 354.779 83.6406 355.258C83.2943 355.736 83.1211 356.445 83.1211 357.384ZM92.7363 359.147L94.459 353.604H95.8125L92.8389 362.142C92.3786 363.372 91.6471 363.987 90.6445 363.987L90.4053 363.967L89.9336 363.878V362.853L90.2754 362.88C90.7038 362.88 91.0365 362.793 91.2734 362.62C91.515 362.447 91.7132 362.13 91.8682 361.67L92.1484 360.918L89.5098 353.604H90.8906L92.7363 359.147ZM107.312 361H100.79V360.091L104.235 356.263C104.746 355.684 105.097 355.215 105.288 354.854C105.484 354.49 105.582 354.114 105.582 353.727C105.582 353.207 105.425 352.781 105.11 352.448C104.796 352.116 104.377 351.949 103.853 351.949C103.224 351.949 102.734 352.129 102.383 352.489C102.036 352.845 101.863 353.341 101.863 353.979H100.599C100.599 353.063 100.893 352.323 101.48 351.758C102.073 351.193 102.864 350.91 103.853 350.91C104.778 350.91 105.509 351.154 106.047 351.642C106.585 352.125 106.854 352.77 106.854 353.576C106.854 354.556 106.229 355.723 104.98 357.076L102.314 359.968H107.312V361Z" fill="black" fill-opacity="0.6"/>
<path d="M65.1553 397V387.047H68.4092C69.4893 387.047 70.3005 387.27 70.8428 387.717C71.3896 388.163 71.6631 388.824 71.6631 389.699C71.6631 390.164 71.5309 390.576 71.2666 390.937C71.0023 391.292 70.6423 391.568 70.1865 391.764C70.7243 391.914 71.1481 392.201 71.458 392.625C71.7725 393.044 71.9297 393.546 71.9297 394.129C71.9297 395.022 71.6403 395.724 71.0615 396.234C70.4827 396.745 69.6647 397 68.6074 397H65.1553ZM66.4678 392.345V395.927H68.6348C69.2454 395.927 69.7262 395.77 70.0771 395.455C70.4326 395.136 70.6104 394.699 70.6104 394.143C70.6104 392.944 69.9587 392.345 68.6553 392.345H66.4678ZM66.4678 391.292H68.4502C69.0244 391.292 69.4824 391.148 69.8242 390.861C70.1706 390.574 70.3438 390.185 70.3438 389.692C70.3438 389.146 70.1842 388.749 69.8652 388.503C69.5462 388.252 69.0609 388.127 68.4092 388.127H66.4678V391.292ZM73.5947 393.233C73.5947 392.509 73.736 391.857 74.0186 391.278C74.3057 390.7 74.7021 390.253 75.208 389.938C75.7184 389.624 76.2995 389.467 76.9512 389.467C77.9583 389.467 78.7718 389.815 79.3916 390.513C80.016 391.21 80.3281 392.137 80.3281 393.295V393.384C80.3281 394.104 80.1891 394.751 79.9111 395.325C79.6377 395.895 79.2435 396.339 78.7285 396.658C78.2181 396.977 77.6302 397.137 76.9648 397.137C75.9622 397.137 75.1488 396.788 74.5244 396.091C73.9046 395.394 73.5947 394.471 73.5947 393.322V393.233ZM74.8662 393.384C74.8662 394.204 75.0553 394.863 75.4336 395.359C75.8164 395.856 76.3268 396.104 76.9648 396.104C77.6074 396.104 78.1178 395.854 78.4961 395.353C78.8743 394.847 79.0635 394.14 79.0635 393.233C79.0635 392.422 78.8698 391.766 78.4824 391.265C78.0996 390.759 77.5892 390.506 76.9512 390.506C76.3268 390.506 75.8232 390.754 75.4404 391.251C75.0576 391.748 74.8662 392.459 74.8662 393.384ZM81.8564 393.24C81.8564 392.105 82.1253 391.194 82.6631 390.506C83.2008 389.813 83.9049 389.467 84.7754 389.467C85.6413 389.467 86.3271 389.763 86.833 390.355V386.5H88.0977V397H86.9355L86.874 396.207C86.3682 396.827 85.6641 397.137 84.7617 397.137C83.9049 397.137 83.2054 396.786 82.6631 396.084C82.1253 395.382 81.8564 394.466 81.8564 393.336V393.24ZM83.1211 393.384C83.1211 394.222 83.2943 394.879 83.6406 395.353C83.987 395.826 84.4655 396.063 85.0762 396.063C85.8783 396.063 86.4639 395.703 86.833 394.983V391.586C86.4548 390.889 85.8737 390.54 85.0898 390.54C84.4701 390.54 83.987 390.779 83.6406 391.258C83.2943 391.736 83.1211 392.445 83.1211 393.384ZM92.7363 395.147L94.459 389.604H95.8125L92.8389 398.142C92.3786 399.372 91.6471 399.987 90.6445 399.987L90.4053 399.967L89.9336 399.878V398.853L90.2754 398.88C90.7038 398.88 91.0365 398.793 91.2734 398.62C91.515 398.447 91.7132 398.13 91.8682 397.67L92.1484 396.918L89.5098 389.604H90.8906L92.7363 395.147ZM107.312 397H100.79V396.091L104.235 392.263C104.746 391.684 105.097 391.215 105.288 390.854C105.484 390.49 105.582 390.114 105.582 389.727C105.582 389.207 105.425 388.781 105.11 388.448C104.796 388.116 104.377 387.949 103.853 387.949C103.224 387.949 102.734 388.129 102.383 388.489C102.036 388.845 101.863 389.341 101.863 389.979H100.599C100.599 389.063 100.893 388.323 101.48 387.758C102.073 387.193 102.864 386.91 103.853 386.91C104.778 386.91 105.509 387.154 106.047 387.642C106.585 388.125 106.854 388.77 106.854 389.576C106.854 390.556 106.229 391.723 104.98 393.076L102.314 395.968H107.312V397Z" fill="black" fill-opacity="0.6"/>
<path d="M64 425C64 422.791 65.7909 421 68 421H340C342.209 421 344 422.791 344 425V475H64V425Z" fill="#212121" fill-opacity="0.08"/>
<path d="M80.8281 452.773H86.2188V454H79.3203V442.625H80.8281V452.773ZM93.0719 454C92.9885 453.833 92.9208 453.536 92.8687 453.109C92.1969 453.807 91.3948 454.156 90.4625 454.156C89.6292 454.156 88.9443 453.922 88.4078 453.453C87.8766 452.979 87.6109 452.38 87.6109 451.656C87.6109 450.776 87.9443 450.094 88.6109 449.609C89.2828 449.12 90.2255 448.875 91.4391 448.875H92.8453V448.211C92.8453 447.706 92.6943 447.305 92.3922 447.008C92.0901 446.706 91.6448 446.555 91.0562 446.555C90.5406 446.555 90.1083 446.685 89.7594 446.945C89.4104 447.206 89.2359 447.521 89.2359 447.891H87.7828C87.7828 447.469 87.9312 447.062 88.2281 446.672C88.5302 446.276 88.9365 445.964 89.4469 445.734C89.9625 445.505 90.5276 445.391 91.1422 445.391C92.1161 445.391 92.8792 445.635 93.4312 446.125C93.9833 446.609 94.2698 447.279 94.2906 448.133V452.023C94.2906 452.799 94.3896 453.417 94.5875 453.875V454H93.0719ZM90.6734 452.898C91.1266 452.898 91.5562 452.781 91.9625 452.547C92.3687 452.312 92.663 452.008 92.8453 451.633V449.898H91.7125C89.9417 449.898 89.0562 450.417 89.0562 451.453C89.0562 451.906 89.2073 452.26 89.5094 452.516C89.8115 452.771 90.1995 452.898 90.6734 452.898ZM103.862 449.867C103.862 451.159 103.566 452.198 102.972 452.984C102.378 453.766 101.581 454.156 100.581 454.156C99.5135 454.156 98.688 453.779 98.1047 453.023L98.0344 454H96.7062V442H98.1516V446.477C98.7349 445.753 99.5396 445.391 100.566 445.391C101.592 445.391 102.396 445.779 102.98 446.555C103.568 447.331 103.862 448.393 103.862 449.742V449.867ZM102.417 449.703C102.417 448.719 102.227 447.958 101.847 447.422C101.467 446.885 100.92 446.617 100.206 446.617C99.2531 446.617 98.5682 447.06 98.1516 447.945V451.602C98.5943 452.487 99.2844 452.93 100.222 452.93C100.915 452.93 101.454 452.661 101.839 452.125C102.224 451.589 102.417 450.781 102.417 449.703ZM109.348 454.156C108.203 454.156 107.27 453.781 106.552 453.031C105.833 452.276 105.473 451.268 105.473 450.008V449.742C105.473 448.904 105.632 448.156 105.95 447.5C106.273 446.839 106.721 446.323 107.294 445.953C107.872 445.578 108.497 445.391 109.169 445.391C110.268 445.391 111.122 445.753 111.731 446.477C112.341 447.201 112.645 448.237 112.645 449.586V450.188H106.919C106.94 451.021 107.182 451.695 107.645 452.211C108.114 452.721 108.708 452.977 109.427 452.977C109.937 452.977 110.369 452.872 110.723 452.664C111.078 452.456 111.388 452.18 111.653 451.836L112.536 452.523C111.828 453.612 110.765 454.156 109.348 454.156ZM109.169 446.578C108.585 446.578 108.096 446.792 107.7 447.219C107.304 447.641 107.059 448.234 106.966 449H111.2V448.891C111.158 448.156 110.96 447.589 110.606 447.188C110.252 446.781 109.773 446.578 109.169 446.578ZM116.045 454H114.6V442H116.045V454Z" fill="black" fill-opacity="0.6"/>
<path fill-rule="evenodd" clip-rule="evenodd" d="M320 442C315 442 310.73 445.11 309 449.5C310.73 453.89 315 457 320 457C325 457 329.27 453.89 331 449.5C329.27 445.11 325 442 320 442ZM320 454.5C317.24 454.5 315 452.26 315 449.5C315 446.74 317.24 444.5 320 444.5C322.76 444.5 325 446.74 325 449.5C325 452.26 322.76 454.5 320 454.5ZM320 446.5C318.34 446.5 317 447.84 317 449.5C317 451.16 318.34 452.5 320 452.5C321.66 452.5 323 451.16 323 449.5C323 447.84 321.66 446.5 320 446.5Z" fill="black" fill-opacity="0.6"/>
<path d="M85.7012 488.773H82.127L81.3242 491H80.1641L83.4219 482.469H84.4062L87.6699 491H86.5156L85.7012 488.773ZM82.4668 487.848H85.3672L83.9141 483.857L82.4668 487.848ZM92.7398 489.318C92.7398 489.025 92.6285 488.799 92.4059 488.639C92.1871 488.475 91.8023 488.334 91.2516 488.217C90.7047 488.1 90.2691 487.959 89.9449 487.795C89.6246 487.631 89.3863 487.436 89.2301 487.209C89.0777 486.982 89.0016 486.713 89.0016 486.4C89.0016 485.881 89.2203 485.441 89.6578 485.082C90.0992 484.723 90.6617 484.543 91.3453 484.543C92.0641 484.543 92.6461 484.729 93.0914 485.1C93.5406 485.471 93.7652 485.945 93.7652 486.523H92.6754C92.6754 486.227 92.5484 485.971 92.2945 485.756C92.0445 485.541 91.7281 485.434 91.3453 485.434C90.9508 485.434 90.6422 485.52 90.4195 485.691C90.1969 485.863 90.0855 486.088 90.0855 486.365C90.0855 486.627 90.1891 486.824 90.3961 486.957C90.6031 487.09 90.9762 487.217 91.5152 487.338C92.0582 487.459 92.4977 487.604 92.8336 487.771C93.1695 487.939 93.4176 488.143 93.5777 488.381C93.7418 488.615 93.8238 488.902 93.8238 489.242C93.8238 489.809 93.5973 490.264 93.1441 490.607C92.691 490.947 92.1031 491.117 91.3805 491.117C90.8727 491.117 90.4234 491.027 90.0328 490.848C89.6422 490.668 89.3355 490.418 89.1129 490.098C88.8941 489.773 88.7848 489.424 88.7848 489.049H89.8687C89.8883 489.412 90.0328 489.701 90.3023 489.916C90.5758 490.127 90.9352 490.232 91.3805 490.232C91.7906 490.232 92.1187 490.15 92.3648 489.986C92.6148 489.818 92.7398 489.596 92.7398 489.318ZM99.3273 489.318C99.3273 489.025 99.216 488.799 98.9934 488.639C98.7746 488.475 98.3898 488.334 97.8391 488.217C97.2922 488.1 96.8566 487.959 96.5324 487.795C96.2121 487.631 95.9738 487.436 95.8176 487.209C95.6652 486.982 95.5891 486.713 95.5891 486.4C95.5891 485.881 95.8078 485.441 96.2453 485.082C96.6867 484.723 97.2492 484.543 97.9328 484.543C98.6516 484.543 99.2336 484.729 99.6789 485.1C100.128 485.471 100.353 485.945 100.353 486.523H99.2629C99.2629 486.227 99.1359 485.971 98.882 485.756C98.632 485.541 98.3156 485.434 97.9328 485.434C97.5383 485.434 97.2297 485.52 97.007 485.691C96.7844 485.863 96.673 486.088 96.673 486.365C96.673 486.627 96.7766 486.824 96.9836 486.957C97.1906 487.09 97.5637 487.217 98.1027 487.338C98.6457 487.459 99.0852 487.604 99.4211 487.771C99.757 487.939 100.005 488.143 100.165 488.381C100.329 488.615 100.411 488.902 100.411 489.242C100.411 489.809 100.185 490.264 99.7316 490.607C99.2785 490.947 98.6906 491.117 97.968 491.117C97.4602 491.117 97.0109 491.027 96.6203 490.848C96.2297 490.668 95.923 490.418 95.7004 490.098C95.4816 489.773 95.3723 489.424 95.3723 489.049H96.4563C96.4758 489.412 96.6203 489.701 96.8898 489.916C97.1633 490.127 97.5227 490.232 97.968 490.232C98.3781 490.232 98.7063 490.15 98.9523 489.986C99.2023 489.818 99.3273 489.596 99.3273 489.318ZM103.401 491H102.317V484.66H103.401V491ZM102.229 482.979C102.229 482.803 102.282 482.654 102.388 482.533C102.497 482.412 102.657 482.352 102.868 482.352C103.079 482.352 103.239 482.412 103.348 482.533C103.458 482.654 103.513 482.803 103.513 482.979C103.513 483.154 103.458 483.301 103.348 483.418C103.239 483.535 103.079 483.594 102.868 483.594C102.657 483.594 102.497 483.535 102.388 483.418C102.282 483.301 102.229 483.154 102.229 482.979ZM109.233 489.318C109.233 489.025 109.121 488.799 108.899 488.639C108.68 488.475 108.295 488.334 107.745 488.217C107.198 488.1 106.762 487.959 106.438 487.795C106.118 487.631 105.879 487.436 105.723 487.209C105.571 486.982 105.495 486.713 105.495 486.4C105.495 485.881 105.713 485.441 106.151 485.082C106.592 484.723 107.155 484.543 107.838 484.543C108.557 484.543 109.139 484.729 109.584 485.1C110.034 485.471 110.258 485.945 110.258 486.523H109.168C109.168 486.227 109.041 485.971 108.788 485.756C108.538 485.541 108.221 485.434 107.838 485.434C107.444 485.434 107.135 485.52 106.913 485.691C106.69 485.863 106.579 486.088 106.579 486.365C106.579 486.627 106.682 486.824 106.889 486.957C107.096 487.09 107.469 487.217 108.008 487.338C108.551 487.459 108.991 487.604 109.327 487.771C109.663 487.939 109.911 488.143 110.071 488.381C110.235 488.615 110.317 488.902 110.317 489.242C110.317 489.809 110.09 490.264 109.637 490.607C109.184 490.947 108.596 491.117 107.873 491.117C107.366 491.117 106.916 491.027 106.526 490.848C106.135 490.668 105.829 490.418 105.606 490.098C105.387 489.773 105.278 489.424 105.278 489.049H106.362C106.381 489.412 106.526 489.701 106.795 489.916C107.069 490.127 107.428 490.232 107.873 490.232C108.284 490.232 108.612 490.15 108.858 489.986C109.108 489.818 109.233 489.596 109.233 489.318ZM113.6 483.125V484.66H114.783V485.498H113.6V489.43C113.6 489.684 113.652 489.875 113.758 490.004C113.863 490.129 114.043 490.191 114.297 490.191C114.422 490.191 114.594 490.168 114.812 490.121V491C114.527 491.078 114.25 491.117 113.98 491.117C113.496 491.117 113.131 490.971 112.885 490.678C112.639 490.385 112.516 489.969 112.516 489.43V485.498H111.361V484.66H112.516V483.125H113.6ZM117.632 491H116.548V484.66H117.632V491ZM116.461 482.979C116.461 482.803 116.513 482.654 116.619 482.533C116.728 482.412 116.888 482.352 117.099 482.352C117.31 482.352 117.47 482.412 117.58 482.533C117.689 482.654 117.744 482.803 117.744 482.979C117.744 483.154 117.689 483.301 117.58 483.418C117.47 483.535 117.31 483.594 117.099 483.594C116.888 483.594 116.728 483.535 116.619 483.418C116.513 483.301 116.461 483.154 116.461 482.979ZM121.864 489.529L123.435 484.66H124.542L122.269 491H121.443L119.146 484.66H120.253L121.864 489.529ZM128.534 491.117C127.675 491.117 126.975 490.836 126.436 490.273C125.897 489.707 125.628 488.951 125.628 488.006V487.807C125.628 487.178 125.747 486.617 125.985 486.125C126.227 485.629 126.563 485.242 126.993 484.965C127.427 484.684 127.895 484.543 128.399 484.543C129.223 484.543 129.864 484.814 130.321 485.357C130.778 485.9 131.007 486.678 131.007 487.689V488.141H126.712C126.727 488.766 126.909 489.271 127.257 489.658C127.608 490.041 128.054 490.232 128.593 490.232C128.975 490.232 129.3 490.154 129.565 489.998C129.831 489.842 130.063 489.635 130.263 489.377L130.925 489.893C130.393 490.709 129.596 491.117 128.534 491.117ZM128.399 485.434C127.962 485.434 127.595 485.594 127.298 485.914C127.001 486.23 126.817 486.676 126.747 487.25H129.923V487.168C129.891 486.617 129.743 486.191 129.477 485.891C129.212 485.586 128.852 485.434 128.399 485.434ZM137.514 483.125V484.66H138.697V485.498H137.514V489.43C137.514 489.684 137.566 489.875 137.672 490.004C137.777 490.129 137.957 490.191 138.211 490.191C138.336 490.191 138.508 490.168 138.727 490.121V491C138.441 491.078 138.164 491.117 137.895 491.117C137.41 491.117 137.045 490.971 136.799 490.678C136.553 490.385 136.43 489.969 136.43 489.43V485.498H135.275V484.66H136.43V483.125H137.514ZM143 491.117C142.14 491.117 141.441 490.836 140.902 490.273C140.363 489.707 140.093 488.951 140.093 488.006V487.807C140.093 487.178 140.213 486.617 140.451 486.125C140.693 485.629 141.029 485.242 141.459 484.965C141.892 484.684 142.361 484.543 142.865 484.543C143.689 484.543 144.33 484.814 144.787 485.357C145.244 485.9 145.472 486.678 145.472 487.689V488.141H141.177C141.193 488.766 141.375 489.271 141.722 489.658C142.074 490.041 142.519 490.232 143.058 490.232C143.441 490.232 143.765 490.154 144.031 489.998C144.296 489.842 144.529 489.635 144.728 489.377L145.39 489.893C144.859 490.709 144.062 491.117 143 491.117ZM142.865 485.434C142.427 485.434 142.06 485.594 141.763 485.914C141.466 486.23 141.283 486.676 141.213 487.25H144.388V487.168C144.357 486.617 144.209 486.191 143.943 485.891C143.677 485.586 143.318 485.434 142.865 485.434ZM149.259 486.975L150.665 484.66H151.931L149.857 487.795L151.995 491H150.741L149.277 488.627L147.812 491H146.552L148.691 487.795L146.616 484.66H147.87L149.259 486.975ZM154.956 483.125V484.66H156.139V485.498H154.956V489.43C154.956 489.684 155.009 489.875 155.114 490.004C155.22 490.129 155.399 490.191 155.653 490.191C155.778 490.191 155.95 490.168 156.169 490.121V491C155.884 491.078 155.606 491.117 155.337 491.117C154.852 491.117 154.487 490.971 154.241 490.678C153.995 490.385 153.872 489.969 153.872 489.43V485.498H152.718V484.66H153.872V483.125H154.956Z" fill="black" fill-opacity="0.6"/>
<path d="M64 518C64 515.791 65.7909 514 68 514H340C342.209 514 344 515.791 344 518V568H64V518Z" fill="#212121" fill-opacity="0.08"/>
<path d="M80.8281 545.773H86.2188V547H79.3203V535.625H80.8281V545.773ZM93.0719 547C92.9885 546.833 92.9208 546.536 92.8687 546.109C92.1969 546.807 91.3948 547.156 90.4625 547.156C89.6292 547.156 88.9443 546.922 88.4078 546.453C87.8766 545.979 87.6109 545.38 87.6109 544.656C87.6109 543.776 87.9443 543.094 88.6109 542.609C89.2828 542.12 90.2255 541.875 91.4391 541.875H92.8453V541.211C92.8453 540.706 92.6943 540.305 92.3922 540.008C92.0901 539.706 91.6448 539.555 91.0562 539.555C90.5406 539.555 90.1083 539.685 89.7594 539.945C89.4104 540.206 89.2359 540.521 89.2359 540.891H87.7828C87.7828 540.469 87.9312 540.062 88.2281 539.672C88.5302 539.276 88.9365 538.964 89.4469 538.734C89.9625 538.505 90.5276 538.391 91.1422 538.391C92.1161 538.391 92.8792 538.635 93.4312 539.125C93.9833 539.609 94.2698 540.279 94.2906 541.133V545.023C94.2906 545.799 94.3896 546.417 94.5875 546.875V547H93.0719ZM90.6734 545.898C91.1266 545.898 91.5562 545.781 91.9625 545.547C92.3687 545.312 92.663 545.008 92.8453 544.633V542.898H91.7125C89.9417 542.898 89.0562 543.417 89.0562 544.453C89.0562 544.906 89.2073 545.26 89.5094 545.516C89.8115 545.771 90.1995 545.898 90.6734 545.898ZM103.862 542.867C103.862 544.159 103.566 545.198 102.972 545.984C102.378 546.766 101.581 547.156 100.581 547.156C99.5135 547.156 98.688 546.779 98.1047 546.023L98.0344 547H96.7062V535H98.1516V539.477C98.7349 538.753 99.5396 538.391 100.566 538.391C101.592 538.391 102.396 538.779 102.98 539.555C103.568 540.331 103.862 541.393 103.862 542.742V542.867ZM102.417 542.703C102.417 541.719 102.227 540.958 101.847 540.422C101.467 539.885 100.92 539.617 100.206 539.617C99.2531 539.617 98.5682 540.06 98.1516 540.945V544.602C98.5943 545.487 99.2844 545.93 100.222 545.93C100.915 545.93 101.454 545.661 101.839 545.125C102.224 544.589 102.417 543.781 102.417 542.703ZM109.348 547.156C108.203 547.156 107.27 546.781 106.552 546.031C105.833 545.276 105.473 544.268 105.473 543.008V542.742C105.473 541.904 105.632 541.156 105.95 540.5C106.273 539.839 106.721 539.323 107.294 538.953C107.872 538.578 108.497 538.391 109.169 538.391C110.268 538.391 111.122 538.753 111.731 539.477C112.341 540.201 112.645 541.237 112.645 542.586V543.188H106.919C106.94 544.021 107.182 544.695 107.645 545.211C108.114 545.721 108.708 545.977 109.427 545.977C109.937 545.977 110.369 545.872 110.723 545.664C111.078 545.456 111.388 545.18 111.653 544.836L112.536 545.523C111.828 546.612 110.765 547.156 109.348 547.156ZM109.169 539.578C108.585 539.578 108.096 539.792 107.7 540.219C107.304 540.641 107.059 541.234 106.966 542H111.2V541.891C111.158 541.156 110.96 540.589 110.606 540.188C110.252 539.781 109.773 539.578 109.169 539.578ZM116.045 547H114.6V535H116.045V547Z" fill="black" fill-opacity="0.6"/>
<path fill-rule="evenodd" clip-rule="evenodd" d="M320 535C315 535 310.73 538.11 309 542.5C310.73 546.89 315 550 320 550C325 550 329.27 546.89 331 542.5C329.27 538.11 325 535 320 535ZM320 547.5C317.24 547.5 315 545.26 315 542.5C315 539.74 317.24 537.5 320 537.5C322.76 537.5 325 539.74 325 542.5C325 545.26 322.76 547.5 320 547.5ZM320 539.5C318.34 539.5 317 540.84 317 542.5C317 544.16 318.34 545.5 320 545.5C321.66 545.5 323 544.16 323 542.5C323 540.84 321.66 539.5 320 539.5Z" fill="black" fill-opacity="0.6"/>
<path d="M85.7012 581.773H82.127L81.3242 584H80.1641L83.4219 575.469H84.4062L87.6699 584H86.5156L85.7012 581.773ZM82.4668 580.848H85.3672L83.9141 576.857L82.4668 580.848ZM92.7398 582.318C92.7398 582.025 92.6285 581.799 92.4059 581.639C92.1871 581.475 91.8023 581.334 91.2516 581.217C90.7047 581.1 90.2691 580.959 89.9449 580.795C89.6246 580.631 89.3863 580.436 89.2301 580.209C89.0777 579.982 89.0016 579.713 89.0016 579.4C89.0016 578.881 89.2203 578.441 89.6578 578.082C90.0992 577.723 90.6617 577.543 91.3453 577.543C92.0641 577.543 92.6461 577.729 93.0914 578.1C93.5406 578.471 93.7652 578.945 93.7652 579.523H92.6754C92.6754 579.227 92.5484 578.971 92.2945 578.756C92.0445 578.541 91.7281 578.434 91.3453 578.434C90.9508 578.434 90.6422 578.52 90.4195 578.691C90.1969 578.863 90.0855 579.088 90.0855 579.365C90.0855 579.627 90.1891 579.824 90.3961 579.957C90.6031 580.09 90.9762 580.217 91.5152 580.338C92.0582 580.459 92.4977 580.604 92.8336 580.771C93.1695 580.939 93.4176 581.143 93.5777 581.381C93.7418 581.615 93.8238 581.902 93.8238 582.242C93.8238 582.809 93.5973 583.264 93.1441 583.607C92.691 583.947 92.1031 584.117 91.3805 584.117C90.8727 584.117 90.4234 584.027 90.0328 583.848C89.6422 583.668 89.3355 583.418 89.1129 583.098C88.8941 582.773 88.7848 582.424 88.7848 582.049H89.8687C89.8883 582.412 90.0328 582.701 90.3023 582.916C90.5758 583.127 90.9352 583.232 91.3805 583.232C91.7906 583.232 92.1187 583.15 92.3648 582.986C92.6148 582.818 92.7398 582.596 92.7398 582.318ZM99.3273 582.318C99.3273 582.025 99.216 581.799 98.9934 581.639C98.7746 581.475 98.3898 581.334 97.8391 581.217C97.2922 581.1 96.8566 580.959 96.5324 580.795C96.2121 580.631 95.9738 580.436 95.8176 580.209C95.6652 579.982 95.5891 579.713 95.5891 579.4C95.5891 578.881 95.8078 578.441 96.2453 578.082C96.6867 577.723 97.2492 577.543 97.9328 577.543C98.6516 577.543 99.2336 577.729 99.6789 578.1C100.128 578.471 100.353 578.945 100.353 579.523H99.2629C99.2629 579.227 99.1359 578.971 98.882 578.756C98.632 578.541 98.3156 578.434 97.9328 578.434C97.5383 578.434 97.2297 578.52 97.007 578.691C96.7844 578.863 96.673 579.088 96.673 579.365C96.673 579.627 96.7766 579.824 96.9836 579.957C97.1906 580.09 97.5637 580.217 98.1027 580.338C98.6457 580.459 99.0852 580.604 99.4211 580.771C99.757 580.939 100.005 581.143 100.165 581.381C100.329 581.615 100.411 581.902 100.411 582.242C100.411 582.809 100.185 583.264 99.7316 583.607C99.2785 583.947 98.6906 584.117 97.968 584.117C97.4602 584.117 97.0109 584.027 96.6203 583.848C96.2297 583.668 95.923 583.418 95.7004 583.098C95.4816 582.773 95.3723 582.424 95.3723 582.049H96.4563C96.4758 582.412 96.6203 582.701 96.8898 582.916C97.1633 583.127 97.5227 583.232 97.968 583.232C98.3781 583.232 98.7063 583.15 98.9523 582.986C99.2023 582.818 99.3273 582.596 99.3273 582.318ZM103.401 584H102.317V577.66H103.401V584ZM102.229 575.979C102.229 575.803 102.282 575.654 102.388 575.533C102.497 575.412 102.657 575.352 102.868 575.352C103.079 575.352 103.239 575.412 103.348 575.533C103.458 575.654 103.513 575.803 103.513 575.979C103.513 576.154 103.458 576.301 103.348 576.418C103.239 576.535 103.079 576.594 102.868 576.594C102.657 576.594 102.497 576.535 102.388 576.418C102.282 576.301 102.229 576.154 102.229 575.979ZM109.233 582.318C109.233 582.025 109.121 581.799 108.899 581.639C108.68 581.475 108.295 581.334 107.745 581.217C107.198 581.1 106.762 580.959 106.438 580.795C106.118 580.631 105.879 580.436 105.723 580.209C105.571 579.982 105.495 579.713 105.495 579.4C105.495 578.881 105.713 578.441 106.151 578.082C106.592 577.723 107.155 577.543 107.838 577.543C108.557 577.543 109.139 577.729 109.584 578.1C110.034 578.471 110.258 578.945 110.258 579.523H109.168C109.168 579.227 109.041 578.971 108.788 578.756C108.538 578.541 108.221 578.434 107.838 578.434C107.444 578.434 107.135 578.52 106.913 578.691C106.69 578.863 106.579 579.088 106.579 579.365C106.579 579.627 106.682 579.824 106.889 579.957C107.096 580.09 107.469 580.217 108.008 580.338C108.551 580.459 108.991 580.604 109.327 580.771C109.663 580.939 109.911 581.143 110.071 581.381C110.235 581.615 110.317 581.902 110.317 582.242C110.317 582.809 110.09 583.264 109.637 583.607C109.184 583.947 108.596 584.117 107.873 584.117C107.366 584.117 106.916 584.027 106.526 583.848C106.135 583.668 105.829 583.418 105.606 583.098C105.387 582.773 105.278 582.424 105.278 582.049H106.362C106.381 582.412 106.526 582.701 106.795 582.916C107.069 583.127 107.428 583.232 107.873 583.232C108.284 583.232 108.612 583.15 108.858 582.986C109.108 582.818 109.233 582.596 109.233 582.318ZM113.6 576.125V577.66H114.783V578.498H113.6V582.43C113.6 582.684 113.652 582.875 113.758 583.004C113.863 583.129 114.043 583.191 114.297 583.191C114.422 583.191 114.594 583.168 114.812 583.121V584C114.527 584.078 114.25 584.117 113.98 584.117C113.496 584.117 113.131 583.971 112.885 583.678C112.639 583.385 112.516 582.969 112.516 582.43V578.498H111.361V577.66H112.516V576.125H113.6ZM117.632 584H116.548V577.66H117.632V584ZM116.461 575.979C116.461 575.803 116.513 575.654 116.619 575.533C116.728 575.412 116.888 575.352 117.099 575.352C117.31 575.352 117.47 575.412 117.58 575.533C117.689 575.654 117.744 575.803 117.744 575.979C117.744 576.154 117.689 576.301 117.58 576.418C117.47 576.535 117.31 576.594 117.099 576.594C116.888 576.594 116.728 576.535 116.619 576.418C116.513 576.301 116.461 576.154 116.461 575.979ZM121.864 582.529L123.435 577.66H124.542L122.269 584H121.443L119.146 577.66H120.253L121.864 582.529ZM128.534 584.117C127.675 584.117 126.975 583.836 126.436 583.273C125.897 582.707 125.628 581.951 125.628 581.006V580.807C125.628 580.178 125.747 579.617 125.985 579.125C126.227 578.629 126.563 578.242 126.993 577.965C127.427 577.684 127.895 577.543 128.399 577.543C129.223 577.543 129.864 577.814 130.321 578.357C130.778 578.9 131.007 579.678 131.007 580.689V581.141H126.712C126.727 581.766 126.909 582.271 127.257 582.658C127.608 583.041 128.054 583.232 128.593 583.232C128.975 583.232 129.3 583.154 129.565 582.998C129.831 582.842 130.063 582.635 130.263 582.377L130.925 582.893C130.393 583.709 129.596 584.117 128.534 584.117ZM128.399 578.434C127.962 578.434 127.595 578.594 127.298 578.914C127.001 579.23 126.817 579.676 126.747 580.25H129.923V580.168C129.891 579.617 129.743 579.191 129.477 578.891C129.212 578.586 128.852 578.434 128.399 578.434ZM137.514 576.125V577.66H138.697V578.498H137.514V582.43C137.514 582.684 137.566 582.875 137.672 583.004C137.777 583.129 137.957 583.191 138.211 583.191C138.336 583.191 138.508 583.168 138.727 583.121V584C138.441 584.078 138.164 584.117 137.895 584.117C137.41 584.117 137.045 583.971 136.799 583.678C136.553 583.385 136.43 582.969 136.43 582.43V578.498H135.275V577.66H136.43V576.125H137.514ZM143 584.117C142.14 584.117 141.441 583.836 140.902 583.273C140.363 582.707 140.093 581.951 140.093 581.006V580.807C140.093 580.178 140.213 579.617 140.451 579.125C140.693 578.629 141.029 578.242 141.459 577.965C141.892 577.684 142.361 577.543 142.865 577.543C143.689 577.543 144.33 577.814 144.787 578.357C145.244 578.9 145.472 579.678 145.472 580.689V581.141H141.177C141.193 581.766 141.375 582.271 141.722 582.658C142.074 583.041 142.519 583.232 143.058 583.232C143.441 583.232 143.765 583.154 144.031 582.998C144.296 582.842 144.529 582.635 144.728 582.377L145.39 582.893C144.859 583.709 144.062 584.117 143 584.117ZM142.865 578.434C142.427 578.434 142.06 578.594 141.763 578.914C141.466 579.23 141.283 579.676 141.213 580.25H144.388V580.168C144.357 579.617 144.209 579.191 143.943 578.891C143.677 578.586 143.318 578.434 142.865 578.434ZM149.259 579.975L150.665 577.66H151.931L149.857 580.795L151.995 584H150.741L149.277 581.627L147.812 584H146.552L148.691 580.795L146.616 577.66H147.87L149.259 579.975ZM154.956 576.125V577.66H156.139V578.498H154.956V582.43C154.956 582.684 155.009 582.875 155.114 583.004C155.22 583.129 155.399 583.191 155.653 583.191C155.778 583.191 155.95 583.168 156.169 583.121V584C155.884 584.078 155.606 584.117 155.337 584.117C154.852 584.117 154.487 583.971 154.241 583.678C153.995 583.385 153.872 582.969 153.872 582.43V578.498H152.718V577.66H153.872V576.125H154.956Z" fill="black" fill-opacity="0.6"/>
<rect width="360" height="126" transform="translate(0 24)" fill="#6200EE"/>
<path fill-rule="evenodd" clip-rule="evenodd" d="M236 62C237.1 62 238 61.1 238 60H234C234 61.1 234.89 62 236 62ZM242 56V51C242 47.93 240.36 45.36 237.5 44.68V44C237.5 43.17 236.83 42.5 236 42.5C235.17 42.5 234.5 43.17 234.5 44V44.68C231.63 45.36 230 47.92 230 51V56L228 58V59H244V58L242 56Z" fill="white" fill-opacity="0.74"/>
<path fill-rule="evenodd" clip-rule="evenodd" d="M290 56.08C289.24 56.08 288.56 56.38 288.04 56.85L280.91 52.7C280.96 52.47 281 52.24 281 52C281 51.76 280.96 51.53 280.91 51.3L287.96 47.19C288.5 47.69 289.21 48 290 48C291.66 48 293 46.66 293 45C293 43.34 291.66 42 290 42C288.34 42 287 43.34 287 45C287 45.24 287.04 45.47 287.09 45.7L280.04 49.81C279.5 49.31 278.79 49 278 49C276.34 49 275 50.34 275 52C275 53.66 276.34 55 278 55C278.79 55 279.5 54.69 280.04 54.19L287.16 58.35C287.11 58.56 287.08 58.78 287.08 59C287.08 60.61 288.39 61.92 290 61.92C291.61 61.92 292.92 60.61 292.92 59C292.92 57.39 291.61 56.08 290 56.08Z" fill="white" fill-opacity="0.74"/>
<path fill-rule="evenodd" clip-rule="evenodd" d="M335.5 54H334.71L334.43 53.73C335.41 52.59 336 51.11 336 49.5C336 45.91 333.09 43 329.5 43C325.91 43 323 45.91 323 49.5C323 53.09 325.91 56 329.5 56C331.11 56 332.59 55.41 333.73 54.43L334 54.71V55.5L339 60.49L340.49 59L335.5 54ZM329.5 54C327.01 54 325 51.99 325 49.5C325 47.01 327.01 45 329.5 45C331.99 45 334 47.01 334 49.5C334 51.99 331.99 54 329.5 54Z" fill="white" fill-opacity="0.74"/>
<path fill-rule="evenodd" clip-rule="evenodd" d="M19 58H37V56H19V58ZM19 53H37V51H19V53ZM19 46V48H37V46H19Z" fill="white"/>
<path d="M75.916 123.717V129H73.4453V114.781H78.8848C80.4733 114.781 81.7331 115.195 82.6641 116.021C83.6016 116.848 84.0703 117.942 84.0703 119.303C84.0703 120.696 83.6113 121.78 82.6934 122.555C81.7819 123.329 80.5026 123.717 78.8555 123.717H75.916ZM75.916 121.734H78.8848C79.7637 121.734 80.4342 121.529 80.8965 121.119C81.3587 120.702 81.5898 120.104 81.5898 119.322C81.5898 118.554 81.3555 117.942 80.8867 117.486C80.418 117.024 79.7734 116.786 78.9531 116.773H75.916V121.734ZM92.3551 129C92.2509 128.798 92.1598 128.469 92.0816 128.014C91.3264 128.801 90.402 129.195 89.3082 129.195C88.247 129.195 87.3811 128.893 86.7105 128.287C86.04 127.682 85.7047 126.933 85.7047 126.041C85.7047 124.915 86.1214 124.052 86.9547 123.453C87.7945 122.848 88.9924 122.545 90.5484 122.545H92.0035V121.852C92.0035 121.305 91.8505 120.868 91.5445 120.543C91.2385 120.211 90.773 120.045 90.148 120.045C89.6077 120.045 89.165 120.182 88.8199 120.455C88.4749 120.722 88.3023 121.064 88.3023 121.48H85.9293C85.9293 120.901 86.1214 120.361 86.5055 119.859C86.8896 119.352 87.4104 118.954 88.068 118.668C88.732 118.382 89.471 118.238 90.2848 118.238C91.5217 118.238 92.5081 118.551 93.2437 119.176C93.9794 119.794 94.357 120.667 94.3766 121.793V126.559C94.3766 127.509 94.51 128.268 94.777 128.834V129H92.3551ZM89.7477 127.291C90.2164 127.291 90.6559 127.177 91.066 126.949C91.4827 126.721 91.7952 126.415 92.0035 126.031V124.039H90.7242C89.8453 124.039 89.1845 124.192 88.7418 124.498C88.2991 124.804 88.0777 125.237 88.0777 125.797C88.0777 126.253 88.2275 126.617 88.527 126.891C88.8329 127.158 89.2398 127.291 89.7477 127.291ZM96.5969 123.639C96.5969 121.998 96.981 120.689 97.7492 119.713C98.524 118.73 99.5493 118.238 100.825 118.238C102.03 118.238 102.977 118.658 103.667 119.498L103.775 118.434H105.913V128.678C105.913 130.064 105.48 131.158 104.614 131.959C103.755 132.76 102.593 133.16 101.128 133.16C100.353 133.16 99.5949 132.997 98.8527 132.672C98.1171 132.353 97.5572 131.933 97.173 131.412L98.2961 129.986C99.0253 130.852 99.9237 131.285 100.991 131.285C101.779 131.285 102.401 131.07 102.857 130.641C103.312 130.217 103.54 129.592 103.54 128.766V128.053C102.857 128.814 101.945 129.195 100.806 129.195C99.5689 129.195 98.5565 128.704 97.7687 127.721C96.9875 126.738 96.5969 125.377 96.5969 123.639ZM98.9602 123.844C98.9602 124.905 99.175 125.742 99.6047 126.354C100.041 126.959 100.643 127.262 101.411 127.262C102.368 127.262 103.078 126.852 103.54 126.031V121.383C103.091 120.582 102.388 120.182 101.431 120.182C100.65 120.182 100.041 120.491 99.6047 121.109C99.175 121.728 98.9602 122.639 98.9602 123.844ZM113.163 129.195C111.659 129.195 110.438 128.723 109.501 127.779C108.57 126.829 108.104 125.566 108.104 123.99V123.697C108.104 122.643 108.306 121.702 108.71 120.875C109.12 120.042 109.693 119.394 110.429 118.932C111.164 118.469 111.985 118.238 112.889 118.238C114.328 118.238 115.438 118.697 116.22 119.615C117.007 120.533 117.401 121.832 117.401 123.512V124.469H110.497C110.568 125.341 110.858 126.031 111.366 126.539C111.88 127.047 112.525 127.301 113.3 127.301C114.387 127.301 115.272 126.861 115.956 125.982L117.235 127.203C116.812 127.835 116.246 128.326 115.536 128.678C114.833 129.023 114.042 129.195 113.163 129.195ZM112.88 120.143C112.229 120.143 111.701 120.37 111.298 120.826C110.901 121.282 110.647 121.917 110.536 122.73H115.057V122.555C115.005 121.76 114.794 121.161 114.423 120.758C114.052 120.348 113.537 120.143 112.88 120.143ZM127.506 115.865V118.434H129.371V120.191H127.506V126.09C127.506 126.493 127.584 126.786 127.74 126.969C127.903 127.145 128.189 127.232 128.6 127.232C128.873 127.232 129.15 127.2 129.43 127.135V128.971C128.889 129.12 128.368 129.195 127.867 129.195C126.044 129.195 125.133 128.189 125.133 126.178V120.191H123.395V118.434H125.133V115.865H127.506ZM133.867 129H131.494V118.434H133.867V129ZM131.347 115.689C131.347 115.325 131.461 115.022 131.689 114.781C131.923 114.54 132.255 114.42 132.685 114.42C133.115 114.42 133.447 114.54 133.681 114.781C133.916 115.022 134.033 115.325 134.033 115.689C134.033 116.048 133.916 116.347 133.681 116.588C133.447 116.822 133.115 116.939 132.685 116.939C132.255 116.939 131.923 116.822 131.689 116.588C131.461 116.347 131.347 116.048 131.347 115.689ZM139.583 115.865V118.434H141.448V120.191H139.583V126.09C139.583 126.493 139.661 126.786 139.818 126.969C139.98 127.145 140.267 127.232 140.677 127.232C140.95 127.232 141.227 127.2 141.507 127.135V128.971C140.967 129.12 140.446 129.195 139.945 129.195C138.122 129.195 137.21 128.189 137.21 126.178V120.191H135.472V118.434H137.21V115.865H139.583ZM145.944 129H143.571V114H145.944V129ZM153.34 129.195C151.836 129.195 150.616 128.723 149.678 127.779C148.747 126.829 148.282 125.566 148.282 123.99V123.697C148.282 122.643 148.483 121.702 148.887 120.875C149.297 120.042 149.87 119.394 150.606 118.932C151.342 118.469 152.162 118.238 153.067 118.238C154.506 118.238 155.616 118.697 156.397 119.615C157.185 120.533 157.579 121.832 157.579 123.512V124.469H150.674C150.746 125.341 151.036 126.031 151.543 126.539C152.058 127.047 152.702 127.301 153.477 127.301C154.564 127.301 155.45 126.861 156.133 125.982L157.412 127.203C156.989 127.835 156.423 128.326 155.713 128.678C155.01 129.023 154.219 129.195 153.34 129.195ZM153.057 120.143C152.406 120.143 151.879 120.37 151.475 120.826C151.078 121.282 150.824 121.917 150.713 122.73H155.235V122.555C155.183 121.76 154.971 121.161 154.6 120.758C154.229 120.348 153.715 120.143 153.057 120.143Z" fill="white"/>
<g filter="url(#filter0_ddd_242_27093)">
<rect x="16" y="132" width="40" height="40" rx="20" fill="#03DAC5"/>
<path fill-rule="evenodd" clip-rule="evenodd" d="M43 153H37V159H35V153H29V151H35V145H37V151H43V153Z" fill="black" fill-opacity="0.87"/>
</g>
<rect width="360" height="24" fill="#212121" fill-opacity="0.08"/>
<path fill-rule="evenodd" clip-rule="evenodd" d="M316 7H306V17H316V7ZM324 12C324 9.23858 326.239 7 329 7C331.761 7 334 9.23858 334 12C334 14.7614 331.761 17 329 17C326.239 17 324 14.7614 324 12ZM346 17L352 7H340L346 17Z" fill="black" fill-opacity="0.38"/>
<defs>
<filter id="filter0_ddd_242_27093" x="6" y="123" width="60" height="60" filterUnits="userSpaceOnUse" color-interpolation-filters="sRGB">
<feFlood flood-opacity="0" result="BackgroundImageFix"/>
<feColorMatrix in="SourceAlpha" type="matrix" values="0 0 0 0 0 0 0 0 0 0 0 0 0 0 0 0 0 0 127 0" result="hardAlpha"/>
<feOffset dy="2"/>
<feGaussianBlur stdDeviation="2"/>
<feColorMatrix type="matrix" values="0 0 0 0 0 0 0 0 0 0 0 0 0 0 0 0 0 0 0.2 0"/>
<feBlend mode="normal" in2="BackgroundImageFix" result="effect1_dropShadow_242_27093"/>
<feColorMatrix in="SourceAlpha" type="matrix" values="0 0 0 0 0 0 0 0 0 0 0 0 0 0 0 0 0 0 127 0" result="hardAlpha"/>
<feOffset dy="1"/>
<feGaussianBlur stdDeviation="5"/>
<feColorMatrix type="matrix" values="0 0 0 0 0 0 0 0 0 0 0 0 0 0 0 0 0 0 0.12 0"/>
<feBlend mode="normal" in2="effect1_dropShadow_242_27093" result="effect2_dropShadow_242_27093"/>
<feColorMatrix in="SourceAlpha" type="matrix" values="0 0 0 0 0 0 0 0 0 0 0 0 0 0 0 0 0 0 127 0" result="hardAlpha"/>
<feOffset dy="4"/>
<feGaussianBlur stdDeviation="2.5"/>
<feColorMatrix type="matrix" values="0 0 0 0 0 0 0 0 0 0 0 0 0 0 0 0 0 0 0.14 0"/>
<feBlend mode="normal" in2="effect2_dropShadow_242_27093" result="effect3_dropShadow_242_27093"/>
<feBlend mode="normal" in="SourceGraphic" in2="effect3_dropShadow_242_27093" result="shape"/>
</filter>
</defs>
</svg>
